<mxfile host="app.diagrams.net" modified="2020-09-28T03:17:09.225Z" agent="5.0 (Windows NT 10.0; WOW64) AppleWebKit/537.36 (KHTML, like Gecko) Chrome/78.0.3904.108 Safari/537.36" etag="Hs3tkU-78-TFEnfysSGh" version="13.7.5" type="github">
  <diagram id="rkyh57ry5HpyusqyrarQ" name="第 1 页">
    <mxGraphModel dx="2251" dy="684" grid="1" gridSize="10" guides="1" tooltips="1" connect="1" arrows="1" fold="1" page="1" pageScale="1" pageWidth="827" pageHeight="1169" math="0" shadow="0">
      <root>
        <mxCell id="0" />
        <mxCell id="1" parent="0" />
        <mxCell id="FifdNwFGQ22cl1oH-cSP-1" value="&lt;font style=&quot;font-size: 23px&quot;&gt;订单&lt;/font&gt;" style="ellipse;whiteSpace=wrap;html=1;" vertex="1" parent="1">
          <mxGeometry x="60" y="800" width="230" height="130" as="geometry" />
        </mxCell>
        <mxCell id="FifdNwFGQ22cl1oH-cSP-2" value="&lt;font style=&quot;font-size: 23px&quot;&gt;商品&lt;/font&gt;" style="ellipse;whiteSpace=wrap;html=1;" vertex="1" parent="1">
          <mxGeometry x="50" y="360" width="230" height="130" as="geometry" />
        </mxCell>
        <mxCell id="FifdNwFGQ22cl1oH-cSP-3" value="&lt;font style=&quot;font-size: 23px&quot;&gt;营销&lt;/font&gt;" style="ellipse;whiteSpace=wrap;html=1;" vertex="1" parent="1">
          <mxGeometry x="50" y="585" width="230" height="130" as="geometry" />
        </mxCell>
        <mxCell id="FifdNwFGQ22cl1oH-cSP-4" value="" style="ellipse;whiteSpace=wrap;html=1;" vertex="1" parent="1">
          <mxGeometry x="-690" y="640" width="460" height="310" as="geometry" />
        </mxCell>
        <mxCell id="FifdNwFGQ22cl1oH-cSP-5" value="&lt;font style=&quot;font-size: 23px&quot;&gt;购买&lt;/font&gt;" style="ellipse;whiteSpace=wrap;html=1;fillColor=#F19C99;" vertex="1" parent="1">
          <mxGeometry x="-590" y="340" width="230" height="130" as="geometry" />
        </mxCell>
        <mxCell id="FifdNwFGQ22cl1oH-cSP-6" value="&lt;font style=&quot;font-size: 23px&quot;&gt;财务&lt;/font&gt;" style="text;html=1;align=center;verticalAlign=middle;resizable=0;points=[];autosize=1;" vertex="1" parent="1">
          <mxGeometry x="-525" y="650" width="60" height="20" as="geometry" />
        </mxCell>
        <mxCell id="FifdNwFGQ22cl1oH-cSP-7" value="账户" style="ellipse;whiteSpace=wrap;html=1;fillColor=#dae8fc;strokeColor=#6c8ebf;" vertex="1" parent="1">
          <mxGeometry x="-630" y="730" width="120" height="80" as="geometry" />
        </mxCell>
        <mxCell id="FifdNwFGQ22cl1oH-cSP-8" value="付款" style="ellipse;whiteSpace=wrap;html=1;fillColor=#F19C99;" vertex="1" parent="1">
          <mxGeometry x="-450" y="720" width="120" height="80" as="geometry" />
        </mxCell>
      </root>
    </mxGraphModel>
  </diagram>
</mxfile>
